# Blender v2.79 (sub 0) OBJ File: 'nodePlate.blend'
# www.blender.org
mtllib nodePlate.mtl
o Plane_Plane.002
v -0.500000 0.000000 0.500000
v 0.500000 0.000000 0.500000
v -0.500000 0.000000 -0.500000
v 0.500000 0.000000 -0.500000
v -0.500000 0.000000 -0.250000
v -0.500000 0.000000 0.000000
v -0.500000 0.000000 0.250000
v -0.250000 0.000000 0.500000
v 0.000000 0.000000 0.500000
v 0.250000 0.000000 0.500000
v 0.500000 0.000000 0.250000
v 0.500000 0.000000 0.000000
v 0.500000 0.000000 -0.250000
v 0.250000 0.000000 -0.500000
v 0.000000 0.000000 -0.500000
v -0.250000 0.000000 -0.500000
v -0.250000 0.000000 0.250000
v -0.250000 0.000000 0.000000
v -0.250000 0.000000 -0.250000
v 0.000000 0.000000 0.250000
v 0.000000 0.000000 0.000000
v 0.000000 0.000000 -0.250000
v 0.250000 0.000000 0.250000
v 0.250000 0.000000 0.000000
v 0.250000 0.000000 -0.250000
vn 0.0000 1.0000 0.0000
usemtl None
s off
f 25//1 13//1 4//1
f 5//1 19//1 3//1
f 19//1 15//1 16//1
f 22//1 25//1 15//1
f 1//1 8//1 17//1
f 7//1 17//1 6//1
f 6//1 19//1 5//1
f 8//1 9//1 17//1
f 17//1 20//1 21//1
f 18//1 21//1 19//1
f 9//1 10//1 23//1
f 20//1 23//1 21//1
f 21//1 24//1 25//1
f 10//1 2//1 23//1
f 23//1 11//1 12//1
f 24//1 12//1 25//1
f 17//1 7//1 1//1
f 21//1 18//1 17//1
f 25//1 22//1 21//1
f 4//1 14//1 25//1
f 21//1 23//1 24//1
f 3//1 19//1 16//1
f 19//1 21//1 22//1
f 23//1 2//1 11//1
f 17//1 9//1 20//1
f 12//1 24//1 23//1
f 25//1 12//1 13//1
f 6//1 17//1 18//1
f 15//1 19//1 22//1
f 19//1 6//1 18//1
f 15//1 25//1 14//1
f 23//1 20//1 9//1
